<svg width="1372" height="817" viewBox="0 0 1372 817" fill="none" xmlns="http://www.w3.org/2000/svg">
<path d="M0 40.0002C0 17.9088 17.9086 0.000125451 40 0.000123299L1285.5 1.94863e-06C1296.55 8.72431e-07 1305.5 8.95431 1305.5 20V27.0001C1305.5 38.0458 1314.45 47.0001 1325.5 47.0001H1352C1363.05 47.0001 1372 55.9544 1372 67.0001V197C1372 219.092 1354.09 237 1332 237H1202.5C1180.41 237 1162.5 254.909 1162.5 277V387C1162.5 409.092 1180.41 427 1202.5 427H1332C1354.09 427 1372 444.909 1372 467V661C1372 683.091 1354.09 701 1332 701H1153C1130.91 701 1113 718.909 1113 741V777C1113 799.091 1095.09 817 1073 817H673.793C651.702 817 633.793 799.091 633.793 777V472C633.793 449.909 615.884 432 593.793 432H40C17.9086 432 0 414.092 0 392V237V109V40.0002Z" fill="#D9D9D9"/>
</svg>
