<svg width="1372" height="947" viewBox="0 0 1372 947" fill="none" xmlns="http://www.w3.org/2000/svg">
<path d="M0 153C0 130.909 17.9086 113 40 113H1097.5C1119.59 113 1137.5 95.0915 1137.5 73.0001V40.0001C1137.5 17.9087 1155.41 0.000118033 1177.5 0.000105994L1332 2.17983e-05C1354.09 9.75943e-06 1372 17.9086 1372 40V282C1372 304.091 1354.09 322 1332 322H709.5C687.409 322 669.5 339.909 669.5 362V647C669.5 669.091 687.409 687 709.5 687H1335.25C1355.55 687 1372 703.454 1372 723.75C1372 744.046 1355.55 760.5 1335.25 760.5H709.5C687.409 760.5 669.5 778.409 669.5 800.5V823C669.5 845.091 687.409 863 709.5 863H1332C1354.09 863 1372 880.909 1372 903V907C1372 929.091 1354.09 947 1332 947H669.5H374.75C352.659 947 334.75 929.091 334.75 907V799.5C334.75 777.409 316.841 759.5 294.75 759.5H40C17.9086 759.5 0 741.591 0 719.5V612C0 589.909 17.9086 572 40 572H207.5C229.591 572 247.5 554.091 247.5 532V396C247.5 373.909 229.591 356 207.5 356H40C17.9086 356 0 338.092 0 316V153Z" fill="#D9D9D9"/>
</svg>
