<svg width="1372" height="1023" viewBox="0 0 1372 1023" fill="none" xmlns="http://www.w3.org/2000/svg">
<path d="M0 189V40C0 17.9086 17.9086 0 40 0H270C292.091 0 310 17.9086 310 40V149C310 171.091 327.909 189 350 189H1332C1354.09 189 1372 206.909 1372 229V668C1372 677.112 1364.61 684.5 1355.5 684.5H1174C1151.91 684.5 1134 702.409 1134 724.5V983C1134 1005.09 1116.09 1023 1094 1023H669.5H597.5C575.409 1023 557.5 1005.09 557.5 983V948V402C557.5 379.908 539.591 362 517.5 362H40C17.9086 362 0 344.091 0 322V189Z" fill="#D9D9D9"/>
</svg>
