<svg width="1372" height="1069" viewBox="0 0 1372 1069" fill="none" xmlns="http://www.w3.org/2000/svg">
<path d="M1332 0C1354.09 0 1372 17.9086 1372 40V1029C1372 1051.09 1354.09 1069 1332 1069H40C17.9087 1069 0.000197811 1051.09 0 1029V924.5C1.17566e-05 902.409 17.9086 884.5 40 884.5H187.5C209.591 884.5 227.5 866.591 227.5 844.5V728C227.5 705.909 209.591 688 187.5 688H40C17.9087 688 0.000196835 670.091 0 648V116C0 93.9086 17.9086 76 40 76H490C512.091 76 530 93.9086 530 116V132C530 154.091 547.909 172 570 172H1120C1142.09 172 1160 154.091 1160 132V40C1160 17.9086 1177.91 3.22131e-07 1200 0H1332ZM475 843C452.909 843 435 860.909 435 883V911C435 933.091 452.909 951 475 951H1063C1085.09 951 1103 933.091 1103 911V883C1103 860.909 1085.09 843 1063 843H475ZM475 427C452.909 427 435 444.909 435 467V780C435 802.091 452.909 820 475 820H1063C1085.09 820 1103 802.091 1103 780V467C1103 444.909 1085.09 427 1063 427H475Z" fill="#D9D9D9"/>
</svg>
